<mxfile host="Electron" agent="Mozilla/5.0 (Windows NT 10.0; Win64; x64) AppleWebKit/537.36 (KHTML, like Gecko) draw.io/27.0.9 Chrome/134.0.6998.205 Electron/35.4.0 Safari/537.36" version="27.0.9">
  <diagram name="Page-1" id="VL4JPKF9C-b6ybWd5yv_">
    <mxGraphModel dx="4882" dy="696" grid="1" gridSize="10" guides="1" tooltips="1" connect="1" arrows="1" fold="1" page="1" pageScale="1" pageWidth="1920" pageHeight="1200" math="0" shadow="0">
      <root>
        <mxCell id="0" />
        <mxCell id="1" parent="0" />
        <mxCell id="l35Igr3sS30EDtC3j7m0-1" value="&lt;font style=&quot;font-size: 28px;&quot;&gt;&lt;b style=&quot;&quot;&gt;Data Flow Diagram&lt;/b&gt;&lt;/font&gt;" style="text;html=1;align=center;verticalAlign=middle;whiteSpace=wrap;rounded=0;" parent="1" vertex="1">
          <mxGeometry x="-3760" y="20" width="280" height="30" as="geometry" />
        </mxCell>
        <mxCell id="l35Igr3sS30EDtC3j7m0-2" value="" style="rounded=0;whiteSpace=wrap;html=1;fillColor=none;dashed=1;" parent="1" vertex="1">
          <mxGeometry x="-3680" y="160" width="200" height="510" as="geometry" />
        </mxCell>
        <mxCell id="l35Igr3sS30EDtC3j7m0-3" value="&lt;font style=&quot;font-size: 24px;&quot;&gt;Sources&lt;/font&gt;" style="rounded=1;whiteSpace=wrap;html=1;strokeColor=none;" parent="1" vertex="1">
          <mxGeometry x="-3640" y="140" width="120" height="40" as="geometry" />
        </mxCell>
        <mxCell id="l35Igr3sS30EDtC3j7m0-22" style="edgeStyle=orthogonalEdgeStyle;rounded=0;orthogonalLoop=1;jettySize=auto;html=1;entryX=0;entryY=0.5;entryDx=0;entryDy=0;" parent="1" source="l35Igr3sS30EDtC3j7m0-4" target="l35Igr3sS30EDtC3j7m0-11" edge="1">
          <mxGeometry relative="1" as="geometry" />
        </mxCell>
        <mxCell id="l35Igr3sS30EDtC3j7m0-23" style="edgeStyle=orthogonalEdgeStyle;rounded=0;orthogonalLoop=1;jettySize=auto;html=1;entryX=0;entryY=0.5;entryDx=0;entryDy=0;" parent="1" source="l35Igr3sS30EDtC3j7m0-4" target="l35Igr3sS30EDtC3j7m0-10" edge="1">
          <mxGeometry relative="1" as="geometry" />
        </mxCell>
        <mxCell id="l35Igr3sS30EDtC3j7m0-24" style="edgeStyle=orthogonalEdgeStyle;rounded=0;orthogonalLoop=1;jettySize=auto;html=1;entryX=0;entryY=0.5;entryDx=0;entryDy=0;" parent="1" source="l35Igr3sS30EDtC3j7m0-4" target="l35Igr3sS30EDtC3j7m0-12" edge="1">
          <mxGeometry relative="1" as="geometry" />
        </mxCell>
        <mxCell id="l35Igr3sS30EDtC3j7m0-4" value="" style="image;aspect=fixed;html=1;points=[];align=center;fontSize=12;image=img/lib/azure2/general/Folder_Blank.svg;" parent="1" vertex="1">
          <mxGeometry x="-3614.5" y="294" width="69" height="56.00000000000001" as="geometry" />
        </mxCell>
        <mxCell id="l35Igr3sS30EDtC3j7m0-18" style="edgeStyle=orthogonalEdgeStyle;rounded=0;orthogonalLoop=1;jettySize=auto;html=1;entryX=0;entryY=0.5;entryDx=0;entryDy=0;" parent="1" source="l35Igr3sS30EDtC3j7m0-5" target="l35Igr3sS30EDtC3j7m0-13" edge="1">
          <mxGeometry relative="1" as="geometry" />
        </mxCell>
        <mxCell id="l35Igr3sS30EDtC3j7m0-19" style="edgeStyle=orthogonalEdgeStyle;rounded=0;orthogonalLoop=1;jettySize=auto;html=1;entryX=0;entryY=0.5;entryDx=0;entryDy=0;" parent="1" source="l35Igr3sS30EDtC3j7m0-5" target="l35Igr3sS30EDtC3j7m0-14" edge="1">
          <mxGeometry relative="1" as="geometry" />
        </mxCell>
        <mxCell id="l35Igr3sS30EDtC3j7m0-20" style="edgeStyle=orthogonalEdgeStyle;rounded=0;orthogonalLoop=1;jettySize=auto;html=1;entryX=0;entryY=0.5;entryDx=0;entryDy=0;" parent="1" source="l35Igr3sS30EDtC3j7m0-5" target="l35Igr3sS30EDtC3j7m0-15" edge="1">
          <mxGeometry relative="1" as="geometry" />
        </mxCell>
        <mxCell id="l35Igr3sS30EDtC3j7m0-5" value="" style="image;aspect=fixed;html=1;points=[];align=center;fontSize=12;image=img/lib/azure2/general/Folder_Blank.svg;" parent="1" vertex="1">
          <mxGeometry x="-3619" y="532" width="69" height="56.00000000000001" as="geometry" />
        </mxCell>
        <mxCell id="l35Igr3sS30EDtC3j7m0-6" value="&lt;b&gt;CRM&lt;/b&gt;" style="text;html=1;align=center;verticalAlign=middle;whiteSpace=wrap;rounded=0;" parent="1" vertex="1">
          <mxGeometry x="-3610" y="360" width="60" height="30" as="geometry" />
        </mxCell>
        <mxCell id="l35Igr3sS30EDtC3j7m0-7" value="&lt;b&gt;ERP&lt;/b&gt;" style="text;html=1;align=center;verticalAlign=middle;whiteSpace=wrap;rounded=0;" parent="1" vertex="1">
          <mxGeometry x="-3614.5" y="600" width="60" height="30" as="geometry" />
        </mxCell>
        <mxCell id="l35Igr3sS30EDtC3j7m0-8" value="" style="rounded=1;whiteSpace=wrap;html=1;fillColor=none;strokeColor=#FFB570;" parent="1" vertex="1">
          <mxGeometry x="-3390" y="210" width="210" height="460" as="geometry" />
        </mxCell>
        <mxCell id="l35Igr3sS30EDtC3j7m0-9" value="&lt;font style=&quot;font-size: 24px;&quot;&gt;&lt;b&gt;Bronze Layer&lt;/b&gt;&lt;/font&gt;" style="rounded=1;whiteSpace=wrap;html=1;fillColor=#ffe6cc;strokeColor=#d79b00;" parent="1" vertex="1">
          <mxGeometry x="-3390" y="160" width="210" height="40" as="geometry" />
        </mxCell>
        <mxCell id="tzqwMX20fcQ0Ou05fTZr-9" style="edgeStyle=orthogonalEdgeStyle;rounded=0;orthogonalLoop=1;jettySize=auto;html=1;exitX=1;exitY=0.5;exitDx=0;exitDy=0;entryX=0;entryY=0.5;entryDx=0;entryDy=0;" parent="1" source="l35Igr3sS30EDtC3j7m0-10" target="tzqwMX20fcQ0Ou05fTZr-3" edge="1">
          <mxGeometry relative="1" as="geometry" />
        </mxCell>
        <mxCell id="l35Igr3sS30EDtC3j7m0-10" value="&lt;span style=&quot;font-size: 16px;&quot;&gt;crm_sales_details&lt;/span&gt;" style="rounded=1;whiteSpace=wrap;html=1;fillColor=#ffe6cc;strokeColor=#d79b00;" parent="1" vertex="1">
          <mxGeometry x="-3380" y="240" width="190" height="40" as="geometry" />
        </mxCell>
        <mxCell id="l35Igr3sS30EDtC3j7m0-11" value="&lt;font style=&quot;font-size: 16px;&quot;&gt;crm_cust_info&lt;/font&gt;" style="rounded=1;whiteSpace=wrap;html=1;fillColor=#ffe6cc;strokeColor=#d79b00;" parent="1" vertex="1">
          <mxGeometry x="-3380" y="302" width="190" height="40" as="geometry" />
        </mxCell>
        <mxCell id="tzqwMX20fcQ0Ou05fTZr-12" style="edgeStyle=orthogonalEdgeStyle;rounded=0;orthogonalLoop=1;jettySize=auto;html=1;exitX=1;exitY=0.5;exitDx=0;exitDy=0;entryX=0;entryY=0.5;entryDx=0;entryDy=0;" parent="1" source="l35Igr3sS30EDtC3j7m0-12" target="tzqwMX20fcQ0Ou05fTZr-5" edge="1">
          <mxGeometry relative="1" as="geometry" />
        </mxCell>
        <mxCell id="l35Igr3sS30EDtC3j7m0-12" value="&lt;font style=&quot;font-size: 16px;&quot;&gt;crm_prd_info&lt;/font&gt;" style="rounded=1;whiteSpace=wrap;html=1;fillColor=#ffe6cc;strokeColor=#d79b00;" parent="1" vertex="1">
          <mxGeometry x="-3380" y="362" width="190" height="40" as="geometry" />
        </mxCell>
        <mxCell id="tzqwMX20fcQ0Ou05fTZr-14" style="edgeStyle=orthogonalEdgeStyle;rounded=0;orthogonalLoop=1;jettySize=auto;html=1;exitX=1;exitY=0.5;exitDx=0;exitDy=0;entryX=0;entryY=0.5;entryDx=0;entryDy=0;" parent="1" source="l35Igr3sS30EDtC3j7m0-13" target="tzqwMX20fcQ0Ou05fTZr-6" edge="1">
          <mxGeometry relative="1" as="geometry" />
        </mxCell>
        <mxCell id="l35Igr3sS30EDtC3j7m0-13" value="&lt;font style=&quot;font-size: 16px;&quot;&gt;erp_loc_a101&lt;/font&gt;" style="rounded=1;whiteSpace=wrap;html=1;fillColor=#ffe6cc;strokeColor=#d79b00;" parent="1" vertex="1">
          <mxGeometry x="-3380" y="540" width="190" height="40" as="geometry" />
        </mxCell>
        <mxCell id="tzqwMX20fcQ0Ou05fTZr-13" style="edgeStyle=orthogonalEdgeStyle;rounded=0;orthogonalLoop=1;jettySize=auto;html=1;exitX=1;exitY=0.5;exitDx=0;exitDy=0;entryX=0;entryY=0.5;entryDx=0;entryDy=0;" parent="1" source="l35Igr3sS30EDtC3j7m0-14" target="tzqwMX20fcQ0Ou05fTZr-7" edge="1">
          <mxGeometry relative="1" as="geometry" />
        </mxCell>
        <mxCell id="l35Igr3sS30EDtC3j7m0-14" value="&lt;font style=&quot;font-size: 16px;&quot;&gt;erp_cust_az12&lt;/font&gt;" style="rounded=1;whiteSpace=wrap;html=1;fillColor=#ffe6cc;strokeColor=#d79b00;" parent="1" vertex="1">
          <mxGeometry x="-3380" y="480" width="190" height="40" as="geometry" />
        </mxCell>
        <mxCell id="tzqwMX20fcQ0Ou05fTZr-15" style="edgeStyle=orthogonalEdgeStyle;rounded=0;orthogonalLoop=1;jettySize=auto;html=1;exitX=1;exitY=0.5;exitDx=0;exitDy=0;entryX=0;entryY=0.5;entryDx=0;entryDy=0;" parent="1" source="l35Igr3sS30EDtC3j7m0-15" target="tzqwMX20fcQ0Ou05fTZr-8" edge="1">
          <mxGeometry relative="1" as="geometry" />
        </mxCell>
        <mxCell id="l35Igr3sS30EDtC3j7m0-15" value="&lt;font style=&quot;font-size: 16px;&quot;&gt;erp_px_cat_g1v2&lt;/font&gt;" style="rounded=1;whiteSpace=wrap;html=1;fillColor=#ffe6cc;strokeColor=#d79b00;" parent="1" vertex="1">
          <mxGeometry x="-3380" y="600" width="190" height="40" as="geometry" />
        </mxCell>
        <mxCell id="tzqwMX20fcQ0Ou05fTZr-1" value="" style="rounded=1;whiteSpace=wrap;html=1;fillColor=none;strokeColor=#666666;fontColor=#333333;" parent="1" vertex="1">
          <mxGeometry x="-3080" y="210" width="210" height="460" as="geometry" />
        </mxCell>
        <mxCell id="tzqwMX20fcQ0Ou05fTZr-2" value="&lt;font style=&quot;font-size: 24px;&quot;&gt;&lt;b&gt;Silver Layer&lt;/b&gt;&lt;/font&gt;" style="rounded=1;whiteSpace=wrap;html=1;fillColor=#f5f5f5;strokeColor=#666666;fontColor=#333333;" parent="1" vertex="1">
          <mxGeometry x="-3080" y="160" width="210" height="40" as="geometry" />
        </mxCell>
        <mxCell id="tzqwMX20fcQ0Ou05fTZr-3" value="&lt;span style=&quot;font-size: 16px;&quot;&gt;crm_sales_details&lt;/span&gt;" style="rounded=1;whiteSpace=wrap;html=1;fillColor=#f5f5f5;strokeColor=#666666;fontColor=#333333;" parent="1" vertex="1">
          <mxGeometry x="-3070" y="240" width="190" height="40" as="geometry" />
        </mxCell>
        <mxCell id="tzqwMX20fcQ0Ou05fTZr-11" style="edgeStyle=orthogonalEdgeStyle;rounded=0;orthogonalLoop=1;jettySize=auto;html=1;exitX=0;exitY=0.5;exitDx=0;exitDy=0;" parent="1" source="tzqwMX20fcQ0Ou05fTZr-4" edge="1">
          <mxGeometry relative="1" as="geometry">
            <mxPoint x="-3070" y="322" as="targetPoint" />
          </mxGeometry>
        </mxCell>
        <mxCell id="tzqwMX20fcQ0Ou05fTZr-4" value="&lt;font style=&quot;font-size: 16px;&quot;&gt;crm_cust_info&lt;/font&gt;" style="rounded=1;whiteSpace=wrap;html=1;fillColor=#f5f5f5;strokeColor=#666666;fontColor=#333333;" parent="1" vertex="1">
          <mxGeometry x="-3070" y="302" width="190" height="40" as="geometry" />
        </mxCell>
        <mxCell id="tzqwMX20fcQ0Ou05fTZr-5" value="&lt;font style=&quot;font-size: 16px;&quot;&gt;crm_prd_info&lt;/font&gt;" style="rounded=1;whiteSpace=wrap;html=1;fillColor=#f5f5f5;strokeColor=#666666;fontColor=#333333;" parent="1" vertex="1">
          <mxGeometry x="-3070" y="362" width="190" height="40" as="geometry" />
        </mxCell>
        <mxCell id="tzqwMX20fcQ0Ou05fTZr-6" value="&lt;font style=&quot;font-size: 16px;&quot;&gt;erp_loc_a101&lt;/font&gt;" style="rounded=1;whiteSpace=wrap;html=1;fillColor=#f5f5f5;strokeColor=#666666;fontColor=#333333;" parent="1" vertex="1">
          <mxGeometry x="-3070" y="540" width="190" height="40" as="geometry" />
        </mxCell>
        <mxCell id="tzqwMX20fcQ0Ou05fTZr-7" value="&lt;font style=&quot;font-size: 16px;&quot;&gt;erp_cust_az12&lt;/font&gt;" style="rounded=1;whiteSpace=wrap;html=1;fillColor=#f5f5f5;strokeColor=#666666;fontColor=#333333;" parent="1" vertex="1">
          <mxGeometry x="-3070" y="480" width="190" height="40" as="geometry" />
        </mxCell>
        <mxCell id="tzqwMX20fcQ0Ou05fTZr-8" value="&lt;font style=&quot;font-size: 16px;&quot;&gt;erp_px_cat_g1v2&lt;/font&gt;" style="rounded=1;whiteSpace=wrap;html=1;fillColor=#f5f5f5;strokeColor=#666666;fontColor=#333333;" parent="1" vertex="1">
          <mxGeometry x="-3070" y="600" width="190" height="40" as="geometry" />
        </mxCell>
        <mxCell id="tzqwMX20fcQ0Ou05fTZr-10" style="edgeStyle=orthogonalEdgeStyle;rounded=0;orthogonalLoop=1;jettySize=auto;html=1;exitX=1;exitY=0.5;exitDx=0;exitDy=0;entryX=0;entryY=0.5;entryDx=0;entryDy=0;" parent="1" source="l35Igr3sS30EDtC3j7m0-11" target="tzqwMX20fcQ0Ou05fTZr-4" edge="1">
          <mxGeometry relative="1" as="geometry">
            <mxPoint x="-3080" y="320" as="targetPoint" />
          </mxGeometry>
        </mxCell>
        <mxCell id="vVef-siIQ2NMdmD6llZJ-1" value="" style="rounded=1;whiteSpace=wrap;html=1;fillColor=none;strokeColor=#d6b656;" vertex="1" parent="1">
          <mxGeometry x="-2770" y="210" width="210" height="460" as="geometry" />
        </mxCell>
        <mxCell id="vVef-siIQ2NMdmD6llZJ-2" value="&lt;font style=&quot;font-size: 24px;&quot;&gt;&lt;b&gt;Gold Layer&lt;/b&gt;&lt;/font&gt;" style="rounded=1;whiteSpace=wrap;html=1;fillColor=#fff2cc;strokeColor=#d6b656;" vertex="1" parent="1">
          <mxGeometry x="-2770" y="160" width="210" height="40" as="geometry" />
        </mxCell>
        <mxCell id="vVef-siIQ2NMdmD6llZJ-3" value="&lt;span style=&quot;font-size: 16px;&quot;&gt;fact_sales&lt;/span&gt;" style="rounded=1;whiteSpace=wrap;html=1;fillColor=#fff2cc;strokeColor=#d6b656;" vertex="1" parent="1">
          <mxGeometry x="-2760" y="240" width="190" height="40" as="geometry" />
        </mxCell>
        <mxCell id="vVef-siIQ2NMdmD6llZJ-5" value="&lt;font style=&quot;font-size: 16px;&quot;&gt;dim_customers&lt;/font&gt;" style="rounded=1;whiteSpace=wrap;html=1;fillColor=#fff2cc;strokeColor=#d6b656;" vertex="1" parent="1">
          <mxGeometry x="-2760" y="360" width="190" height="40" as="geometry" />
        </mxCell>
        <mxCell id="vVef-siIQ2NMdmD6llZJ-6" value="&lt;font style=&quot;font-size: 16px;&quot;&gt;dim_products&lt;/font&gt;" style="rounded=1;whiteSpace=wrap;html=1;fillColor=#fff2cc;strokeColor=#d6b656;" vertex="1" parent="1">
          <mxGeometry x="-2760" y="482" width="190" height="40" as="geometry" />
        </mxCell>
        <mxCell id="vVef-siIQ2NMdmD6llZJ-10" value="" style="endArrow=classic;html=1;rounded=0;exitX=1;exitY=0.5;exitDx=0;exitDy=0;entryX=0;entryY=0.5;entryDx=0;entryDy=0;" edge="1" parent="1" source="tzqwMX20fcQ0Ou05fTZr-3" target="vVef-siIQ2NMdmD6llZJ-3">
          <mxGeometry width="50" height="50" relative="1" as="geometry">
            <mxPoint x="-2840" y="290" as="sourcePoint" />
            <mxPoint x="-2790" y="240" as="targetPoint" />
          </mxGeometry>
        </mxCell>
        <mxCell id="vVef-siIQ2NMdmD6llZJ-12" value="" style="endArrow=classic;html=1;rounded=0;exitX=1;exitY=0.5;exitDx=0;exitDy=0;entryX=0;entryY=0.5;entryDx=0;entryDy=0;" edge="1" parent="1" source="tzqwMX20fcQ0Ou05fTZr-4" target="vVef-siIQ2NMdmD6llZJ-5">
          <mxGeometry width="50" height="50" relative="1" as="geometry">
            <mxPoint x="-2850" y="450" as="sourcePoint" />
            <mxPoint x="-2800" y="400" as="targetPoint" />
          </mxGeometry>
        </mxCell>
        <mxCell id="vVef-siIQ2NMdmD6llZJ-14" value="" style="endArrow=classic;html=1;rounded=0;entryX=0;entryY=0.5;entryDx=0;entryDy=0;" edge="1" parent="1" target="vVef-siIQ2NMdmD6llZJ-5">
          <mxGeometry width="50" height="50" relative="1" as="geometry">
            <mxPoint x="-2880" y="500" as="sourcePoint" />
            <mxPoint x="-2830" y="450" as="targetPoint" />
          </mxGeometry>
        </mxCell>
        <mxCell id="vVef-siIQ2NMdmD6llZJ-15" value="" style="endArrow=classic;html=1;rounded=0;entryX=0;entryY=0.5;entryDx=0;entryDy=0;" edge="1" parent="1" target="vVef-siIQ2NMdmD6llZJ-5">
          <mxGeometry width="50" height="50" relative="1" as="geometry">
            <mxPoint x="-2880" y="560" as="sourcePoint" />
            <mxPoint x="-2830" y="510" as="targetPoint" />
          </mxGeometry>
        </mxCell>
        <mxCell id="vVef-siIQ2NMdmD6llZJ-16" value="" style="endArrow=classic;html=1;rounded=0;entryX=0;entryY=0.5;entryDx=0;entryDy=0;" edge="1" parent="1" target="vVef-siIQ2NMdmD6llZJ-6">
          <mxGeometry width="50" height="50" relative="1" as="geometry">
            <mxPoint x="-2880" y="380" as="sourcePoint" />
            <mxPoint x="-2830" y="330" as="targetPoint" />
          </mxGeometry>
        </mxCell>
        <mxCell id="vVef-siIQ2NMdmD6llZJ-17" value="" style="endArrow=classic;html=1;rounded=0;entryX=0;entryY=0.5;entryDx=0;entryDy=0;" edge="1" parent="1" target="vVef-siIQ2NMdmD6llZJ-6">
          <mxGeometry width="50" height="50" relative="1" as="geometry">
            <mxPoint x="-2880" y="620" as="sourcePoint" />
            <mxPoint x="-2830" y="575" as="targetPoint" />
          </mxGeometry>
        </mxCell>
      </root>
    </mxGraphModel>
  </diagram>
</mxfile>
